/* XPM */
static char *CONCRETE_2B[] = {
/* columns rows colors chars-per-pixel */
"64 64 18 1 ",
"  c #090909",
". c gray5",
"X c #141413",
"o c #181817",
"O c #1C1C1B",
"+ c #1D1E1B",
"@ c #1D1E1D",
"# c #211F1D",
"$ c #28221F",
"% c #232320",
"& c #242320",
"* c #292623",
"= c #2B2A27",
"- c #332A26",
"; c #332E28",
": c #382B2F",
"> c #3C322C",
", c #564144",
/* pixels */
"o$$ooooooo$oXooooo ooo$oo oo$oooo$$ooooooo$oXoooooXooo$oo oo$ooo",
"$$:::$$$$#$##$$$#:$$$:$#$:#::$:$$$:::$$$$#$##$$$#:$$$:$#$:X:$$:$",
"O#O$XOOO$O$XOOOOO#OXO$O$X$OOO#$OO#O$XOOO$O$XOOOOO#OXO$O$X$OOO#$O",
"OO$oOO$XO$OOOOOOOOOO$O$o$#OoXOOOOO$oOO$XO$OOOOOOOOOO$O$o$#OoXOOO",
"OOOOOO$OOOXOO$OOO$OoOOOOOXOO$OXOOOOOOO$OOOXOO$OOO$OoOOOOOXOO$OXO",
"OOOX#$OOO$OOOOOX#OOOO$XO$OOOO$OOOOOX#$OOO$OOOOOX#OOOO$XO$OOOO$OO",
"OOoo$OOO$O#OOO$OO#OOOO$oOOOO$O#oOOoo$OOO$O#OOO$OO#OOOO$oOOOO$O#o",
"XOO$O#X$O$OOX$O$OOOoO$OOOOO$OOOOXOO$O#X$O$OOX$O$OOOoO$OOOOO$OOOO",
"OO#O$OOOoOO#$OoOOOOO$$#OOX$o$OOOOO#O$OOOoOO#$OoOOOOO$$#OOX$o#OOO",
"OOO#OOO#OOO$$$OXoOO$X$OOOOO*OOOoOOO#@+O#OOO$$$OXoOO$X$OOOOO$OOOo",
"oO$X#OOOoOOO$OOOOO#O$$OOoO$+OX$OoO$X++OOoOOO$OOOOO#O$$OOoO$#OX$O",
"O$X$OOOOXOO$X$oOOoO$OOOOO$O+OOoOO$X$OOOOXOO$X$oOOoO$OOOOO$O#OOoO",
"$OOOOOOOOO$#$#OOOOO$OO#XO$OOOOOO$OOOOOOOOO$#$#OOOOO$OO#XO$OOOOOO",
"OOXOOOoOO$o$$OX$OOOOOOOOOOO==%O$OOX$==oOO$o$$OX$OOOOOOOOOOOOOOO$",
"O$oOOOXO$OXOOOO#O$OOOoOOOo===;$OO$o===+O$OXOOOO#O$OOOoOOOoOOO#$O",
"  X X X       X     X  XX.O...   XX.O.+.    X X X   X        X  ",
"oo$oXooooo ooo$oo oo$ooo&>>&&&oooo$%+%%%$oXooo$oo oo$oooo$$ooooo",
"$#$##$$$#:$$$:$#$:#::$:>>>,,,>$$$$$;;>>>;,$$$:$+$:X:$$:$$$:::$$$",
"OoOXoOOOo$OOO#OXO$X$OO>===>>>=OOOoO+%===$>=OO+OXO$X$OO$OOO$$$OOO",
"$O$OX$OX$OOO$OOOOO$$$===%==>=+OO$O$=+>=O>===*+OOOO$$$OOOoOO$OXOO",
"oO#OOOO$+OO$OO$O$$O$=>===%>==%O+oO+====>;==>=O$O#$O$O$OOOo$OOoO#",
"OOOXOO$O$O#OOOOO$O$O=====>%O>=OOOOOO==>=>=;===OO$O$XOOOOO$oX$OOO",
"oO$Oo$O$$$OOXOOXOo===;=O====>;OOoO$=%>=>>>==+==XOoOOO#OXOOOO$#OO",
"OOOO#O$#XOO$Oo$$O=======>==>=%O$OOO%;=>;O==>=&>>OOOOOOOO$OO$OOO#",
"OOO$$XO$$OOOOOOO===+====>=>=>X$OOOO$>+=>>=======;OOXOOOO$O$O$X$O",
"O$OO$OOOO#OOO$O===>==;=>%;=>$$oOO$OO$====;===>====$OO#O$o#O$$$oO",
"OXO$OOO#OOO#OO====+>==>=>;>X$O@+OXO$OO=;===;======O$OO$O$#$X$OOO",
"OOoX$OOOXOOoO=>O=====+$>=>O$OOO+OOoX$OO=+==%==>+====OXo$O$O$OOO#",
"OOOOO$O$OOX$O;========O==OoOOX=====OO$O$==O>=;======OOXOOOoOOXOO",
"OOXO$O$OO$$O$%=>+===;>=-O$OO$=;===+=$O$OO->=>==>O==$#$O$O$OO$O#O",
"O#OOOXOOOOO#OOOOOO$XO$OOo+OO=====;===XOOOO@+OOOOOO$XO#OOo#OOOOOO",
"    X X X   X        X    X +.+...... X     X  XX X      XX X X ",
"ooXooo$oo oo$oooo$$ooooooo&o+%$$%%.&&o$oo oo$oooo$$ooooooo$oXooo",
"O:$$$:$$$:X:$$:$$$:::$$$$$&+;>>>;,>>>:$$$:+::$:$$$:::$$$$@$$+$$$",
"O$O$XOOO$O$XOOOOO#OXO$+*X$OO=;>==;=>OOOO$O$XOOOOO$OXO$O$X&OOO$$O",
"OO$oOO$XO$OOO$======>=>+$+OoX=====>%OO$X+==========&$O$o$+OoXOOO",
"OOOOOO$OOOXOO>=*=>=$=====XOO$OO====OOO$O==+==>===>=$OOOOOXOO$OXO",
"OOOX+$OOO$OOO==#;====>O=>=OOO$OOOOOX+$O==>=====O;===O$XO$OOOO$OO",
"OOoo$OOO$O$OOO>==;====>%===O$O$oOOoo$O==>=;===>==;=OOO$oOOOO$O+o",
"XOO$OOX$O$OOX$O:===$=>=====>OOOOXOO$O;+>=>==+>=>==OoO$OOOOO$OOOO",
"OO++*OOOoOO###X#====>>;==O>&>OOOOO$O>===%==;>=$=*O##$##OOX$o+OOO",
"OOOOOOO#OOO#$##Xo==>O>=====>=+OoOO@&===;===>>>=OoOO#X*OOOOO$@OOo",
"oO$X#OOOoO##$##oo@;=>>==&=>;=+&OoO$O;===%===>==OOO#O$$OOoO$$OX$O",
"O$X$OOOOXOO$X$o#@oO>=====>=;==oOO$X>====+==>O>oOOo##O#OOO$O+OOoO",
"$OOOOOOOOO##*#++OOO$==;O=>====OO$OO=======>;>+OOOOO#OO#XO&OOOOOO",
"OOXOOOoO##o$#OX&OOOOO=========O$OOX===$==>%>$@X$OO##OOOOOOOOOOO$",
"O$oOOOXO##XO#OO+O$OOOo===&===;$OO$o===+=>=+OOOO$##OOOoOOOoOOO+$O",
"    X  XX X      XX X X.....O.X X  .+.....   X    X X X       X ",
"o oo$oooo$$ooooooo$oXooo%%O&%%$oo o$>*&&$$$ooooooo##X#X#Xo #X##o",
"$:#::$:$$$:::$$$$#$##$$$#,>>>,$#$:X,>:,:$$:::$$$#######$#:$$#:$#",
"OoOXoOOOo$OOO#OXO$X$OO$OOO>>>=OOOoOO$==Oo$OOO#OX##X$#o#O#O#$####",
"$O$OX$OX$OOO$OOOOO$$$OOOoOO>=oOO$O$$O>OX$OOO$OOO##$$###OX####.#o",
"oO#OOOO$#OO$OO#O#$O$O$OOOo$OOoO#oO+@OOO$#OO$OO#O######OOOo$O#X##",
"OOOXOO$O$O#OOOOO$O$XOOOOO$oX$OOOOOOXOO$O$O#OOOOO###X##OOO$oX###o",
"oO$Oo$O$$$OOXOOXOoOOO#OXOOOO$$OOoO$Oo$O$$$OOXOOX#XoOo#OXOOOO$#o#",
"OOOO#O$#XOO$Oo$$OOOOOOOO$OO$OOO+OOOO#O$#XOO$Oo$$###O#OOO$OO$OOo#",
"OOO$$XO$$OOOOOOO#OOXOOOO$O$O$X$OOOO$$XO$$OOOOOOO#OOXOOOO$O$O$X$O",
"O$OO$OOOO#OOO$OOOO$OO#O$o#O$$$oOO$OO$OOOO#OOO$OOOO$OO#O$o#O$$$oO",
"OXO$OOO#OOO#OOOOOOX$OO$O$#$X$OOOOXO$OOO+OOO#OOOOOOX$OO$O$#$X$OOO",
"OOoX$OOOXOOoOO$XOOOOOXo$O$O$OOO#OOoX$@++XOOoOO$XOOOOOXo$O$O$OOO#",
"OOOOO$O$OOX$O#OOOOOOOOXOOOoOOXOOOOOOO$O$OOX$O#OOOOOOOOXOOOoOOXOO",
"OOXO$O$OO$$O$OO$XOOO#$O$O$OO$O#OOOXO$O$OO$$O$OO$XOOO#$O$O$OO$O#O",
"O#OOOXOOOOO#OOOOOO$XO#OOo#OOOOOOO#OOOXOOOOO#OOOOOO$XO#OOo#OOOOOO",
" XX X X     X X X   X        X    X X X       X     X  XX X     "
};
