/* XPM */
static char *GRASS_1A[] = {
/* columns rows colors chars-per-pixel */
"64 64 4 1 ",
"  c #003422",
". c #094227",
"X c #16582E",
"o c #246226",
/* pixels */
" X X..    .oo           X X   ...      ..X X..o  .X X   . .  oo ",
"o o..X X   .. X X..X X.o o     ..X X   .. o o.   o o.    . .  ..",
" o..  o o    o o..o o o o       o o        o      o..  X X.  ...",
"       o o  o o .. o   o..       o...X X   ...          o o X X ",
"..X X . o    o          ..  X X    .o o     ... X X.   ..o o.o o",
"o..o o . o       X X...    ..o o   o o.  X X ..o o. .   ..o   o ",
"  ..o o     X X   o o.  X X.. o o.. o.. ..o o . o  X X   ..   .o",
"     o   . . X .  .o . o o..   o .       ..o        o o    X X. ",
" X    o . .   . . ..    o      ..X X      ..   X X   o . .o o. X",
"o o.   . . X X .  X X      X X  o o  ...   X X  X .   . .  o    ",
" o ..   . o o.     o o..  o o... o  .X X    o o  .X X. X X      ",
"   .X X    o.  . .  o o    o  ...  ...o o  ..o   o o  . o o ... ",
"X  o o   ...  X X.. .o    ... X X. ..  o o...     o      o o..X ",
"  o o    ..  o o ..   o . .. o o..  X X.o ..     ..X X    o .o o",
".. o   X X  o o.. X X   ..  o o    o o.  o    X X ..o o   ..  o ",
" .o.    o o  o..   o o  X X  o      o.       o o   ..o o        ",
"  ..     o  ...   ..o  o o  o .          . .o o.X X ..o   X X.. ",
"       ...  ..     ...  o    . .X X ... . .  o . o o   o   o o..",
" X X    ... X X     ..        .  o o..  X X o   ..o         o ..",
"o o...X X... o o     X X ...      o .  o o      ...   .X X. .   ",
" o...o o  X X o o   o o ...X X    ..  o o ..    X X  .o o  . .  ",
" ...o o    o o o  .o o ...  o o   X X  o. X X.   o o.. o    . . ",
"X..  o...   o ...   o. ..    o o o o .o. o o.     o o.   X X .X ",
"     ..X X   ...    ...  X X  o . o  ..   o  X X.. o    o o  o o",
" X X .. o o ...    X X.   o o...              o o   o..o o  o o ",
"..o o    o o..X X.o o      o .. .X X X X     ..o   ...  o. . o .",
"...o      o  o o.. o        .. .o o ..o o    ..    ..  o. .     ",
" ...      ..o o..   ...X X     . o ... o o        X X  . . X X  ",
" X X   X X . o  X X...o o ...      ..   o . X X  ..o o  .   o o ",
"  o o ..o o ...  o o.o o   .XX  ..  X X  ..o o..  ..o o    ..o o",
"   o o.. o   X X  o   o         .  o o    o o ..X X..o  X X.. o ",
"    o .     o o        ...   o o  o o.     o   o o  ..o..o o   o",
" X  .. X X.. o ...    ..X X   o o  o...   o .   o       ..o  . .",
"o o   o o..   ...X X ..o o     o  o  ..  . .    ...  X X .. . . ",
" o   o o..    ..  o o.. o  X X  o... X X. .  X X..  o o    .X X ",
" ...  o..   X X    o o    o o  X X. o o  .   .o o  o o..   o o  ",
"  ...o     o o  ... o    o o   .o o  o    X X..o o  o..   o o   ",
" X X.. ...o o.   ... o    o    ..o    ...o o    o  ..X X   o . .",
". o o. X.  o. . X X..    o  ..X X      .o o...     .o o  ...  . ",
".  o o    o  .   o o.   ...  o o   ...   o   ..      o    . .X X",
"    o   . . X X   o      ...o o.  X X       X X  . .     X X. o ",
".  . o . .   o o ...   X X.. o   ..o o       o o. . X X.o o   .o",
" X. . . .     o ...     o o..   ... o  ...    o  . o o.  o   . .",
"o o.  X X X X   .. X X.. o o            .X X. .   o o  . .  . . ",
" o   o o   o o.   o o..   o     . .     o o. . .   o.   . X X.  ",
" ...o o     o o. o o..   ...   . .X X  o o..  . . o. .X X  o o  ",
"  .. o  ...  o .. o.. X X ... X X  o o  o      .    .o o    o . ",
"XX ... ...    o..    o o   ..o o    o o    . .X X     o    ... X",
"o   X X          ...  o     o o...   o    . .o o..            o ",
"  .o o   X X .  XX.        . o  X X   o    .o o X X  X X   . o o",
"    o.  o o .     o  . .    ...o o. .  . .   o o o. o o   . . o ",
"    ...o o .     o o  . . X X.. o. .X X . .     o  o o.X X .    ",
".X X .. o   X X.. o    . . o o    .o o   .X X ...   o.  o o   ..",
"  o o      o o..    ..X X.  o o   o o.    .o o..   o.    o o X X",
"o .o o      o..    ..o o     o ..  o. .     o o   .    ...o . o ",
"   .o  X X. ..     .o o      . .     . X X   o     X X  ...  . o",
"    .. .o o  X X     o   X X. .X X.   o o . . o     o o  .X X   ",
"X X    ..o  o o ... o   o o  .o o. . o o   ..        o   o o    ",
" o         o o    ..   o o.    o  .   o    X X   X X    o o ..X ",
"     X X    o    X X    o.             . .o o   o o   .. o   o o",
".   o o    o..    o o ...       X X   . .  o   o o   . .  ... o ",
"   o o      .X X  .o o..  .X X   o o   .        o   . X X   .. .",
"    o    X X .o o...o    ...o o   o o    ...X X..    . o o X X  ",
"   o     .o o .o ..      ..  o .   o    X X  o o   X X .o   o o "
};
