/* XPM */
static char *_7d3d839fe6a4c5edd48dec88d55ab56BCBXZPlMV8s9Iy0h[] = {
/* columns rows colors chars-per-pixel */
"64 64 14 1 ",
"  c white",
". c #5BAD5B",
"X c #008000",
"o c #C7E3C7",
"O c #AAD5AA",
"+ c #AFD7AF",
"@ c #EEF7EE",
"# c #F7FBF7",
"$ c #B2D9B2",
"% c #B7DBB7",
"& c #D5EAD5",
"* c #67B367",
"= c #FDFEFD",
"- c black",
/* pixels */
"                                                                ",
"                                                                ",
"                                                                ",
"                                                                ",
"                                                                ",
"                                                                ",
"                                                                ",
"                                                                ",
"                                                                ",
"                                                                ",
"                                                                ",
"                .XXXXXXXXXXXXXXXXXXXXXXXXXXXXXXXo               ",
"                .XXXXXXXXXXXXXXXXXXXXXXXXXXXXXXXo               ",
"                .XXXXXXXXXXXXXXXXXXXXXXXXXXXXXXXo               ",
"                .XXXXXXXXXXXXXXXXXXXXXXXXXXXXXXXo               ",
"                .XXXXXXXXXXXXXXXXXXXXXXXXXXXXXXXo               ",
"                .XXXXXXXXXXXXXXXXXXXXXXXXXXXXXXXo               ",
"                .XXXXXXXXXXXXXXXXXXXXXXXXXXXXXXXo               ",
"                .XXXXXXXXO++++++++++++++++++++++@               ",
"                .XXXXXXXX#                                      ",
"                .XXXXXXXX#                                      ",
"                .XXXXXXXX#                                      ",
"                .XXXXXXXX#                                      ",
"                .XXXXXXXX#                                      ",
"                .XXXXXXXX#                                      ",
"                .XXXXXXXX#                                      ",
"                .XXXXXXXX#                                      ",
"                .XXXXXXXX$%%%%%%%%%%%%%%%%%%%%&                 ",
"                .XXXXXXXXXXXXXXXXXXXXXXXXXXXXX*                 ",
"                .XXXXXXXXXXXXXXXXXXXXXXXXXXXXX*                 ",
"                .XXXXXXXXXXXXXXXXXXXXXXXXXXXXX*                 ",
"                .XXXXXXXXXXXXXXXXXXXXXXXXXXXXX*                 ",
"                .XXXXXXXXXXXXXXXXXXXXXXXXXXXXX*                 ",
"                .XXXXXXXXXXXXXXXXXXXXXXXXXXXXX*                 ",
"                .XXXXXXXXXXXXXXXXXXXXXXXXXXXXX*                 ",
"                .XXXXXXXX#                                      ",
"                .XXXXXXXX#                                      ",
"                .XXXXXXXX#                                      ",
"                .XXXXXXXX#                                      ",
"                .XXXXXXXX#                                      ",
"                .XXXXXXXX#                                      ",
"                .XXXXXXXX#                                      ",
"                .XXXXXXXX#                                      ",
"                .XXXXXXXX#                                      ",
"                .XXXXXXXX#                                      ",
"                .XXXXXXXX#                                      ",
"                .XXXXXXXX$%%%%%%%%%%%%%%%%%%%%%%%=              ",
"                .XXXXXXXXXXXXXXXXXXXXXXXXXXXXXXXX#              ",
"                .XXXXXXXXXXXXXXXXXXXXXXXXXXXXXXXX#              ",
"                .XXXXXXXXXXXXXXXXXXXXXXXXXXXXXXXX#              ",
"                .XXXXXXXXXXXXXXXXXXXXXXXXXXXXXXXX#              ",
"                .XXXXXXXXXXXXXXXXXXXXXXXXXXXXXXXX#              ",
"                .XXXXXXXXXXXXXXXXXXXXXXXXXXXXXXXX#              ",
"                .XXXXXXXXXXXXXXXXXXXXXXXXXXXXXXXX#              ",
"                                                                ",
"                                                                ",
"                                                                ",
"                                                                ",
"                                                                ",
"                                                                ",
"                                                                ",
"                                                                ",
"                                                                ",
"                                                                "
};
