/* XPM */
static char *_3f8ca480d1f446c90960390342933213YNFzbDtohhOqdWk[] = {
/* columns rows colors chars-per-pixel */
"64 64 163 2 ",
"   c white",
".  c #FFEEEE",
"X  c #FFC7C7",
"o  c #FFA8A8",
"O  c #FF9393",
"+  c #FF8888",
"@  c #FF8383",
"#  c #FF9191",
"$  c #FFA0A0",
"%  c #FFAFAF",
"&  c #FFCBCB",
"*  c #FFF8F8",
"=  c #FFC6C6",
"-  c #FF6D6D",
";  c #FF2A2A",
":  c #FF0101",
">  c red",
",  c #FF0505",
"<  c #FF3232",
"1  c #FF6E6E",
"2  c #FFCFCF",
"3  c #FFB1B1",
"4  c #FF3030",
"5  c #FF3636",
"6  c #FF5454",
"7  c #FF5E5E",
"8  c #FFF0F0",
"9  c #FFE7E7",
"0  c #FF2C2C",
"q  c #FF2626",
"w  c #FFE9E9",
"e  c #FF3333",
"r  c #FF3131",
"t  c #FFF1F1",
"y  c #FF7373",
"u  c #FF5D5D",
"i  c #FFDCDC",
"p  c #FF2929",
"a  c #FF3B3B",
"s  c #FF4343",
"d  c #FF3737",
"f  c #FF1B1B",
"g  c #FFC5C5",
"h  c #FF7272",
"j  c #FF0202",
"k  c #FF5C5C",
"l  c #FFBEBE",
"z  c #FFF9F9",
"x  c #FF9494",
"c  c #FF4040",
"v  c #FF1D1D",
"b  c #FF1414",
"n  c #FFF2F2",
"m  c #FF3E3E",
"M  c #FFE8E8",
"N  c #FFE3E3",
"B  c #FFA6A6",
"V  c #FFECEC",
"C  c #FF1717",
"Z  c #FF9898",
"A  c #FF8989",
"S  c #FF6767",
"D  c #FFE6E6",
"F  c #FFE5E5",
"G  c #FF4848",
"H  c #FFD5D5",
"J  c #FF8282",
"K  c #FF6969",
"L  c #FF5757",
"P  c #FF7676",
"I  c #FF0303",
"U  c #FF9595",
"Y  c #FFFEFE",
"T  c #FF2E2E",
"R  c #FF9C9C",
"E  c #FF8D8D",
"W  c #FF0707",
"Q  c #FF4B4B",
"!  c #FFD9D9",
"~  c #FF1919",
"^  c #FF9797",
"/  c #FFD7D7",
"(  c #FFA1A1",
")  c #FF1C1C",
"_  c #FFB4B4",
"`  c #FF6666",
"'  c #FF1212",
"]  c #FFD3D3",
"[  c #FFFDFD",
"{  c #FF5959",
"}  c #FF4C4C",
"|  c #FFD8D8",
" . c #FF8080",
".. c #FF0606",
"X. c #FF8E8E",
"o. c #FF6868",
"O. c #FF7B7B",
"+. c #FF7878",
"@. c #FFEFEF",
"#. c #FFB0B0",
"$. c #FF7171",
"%. c #FF2F2F",
"&. c #FFA7A7",
"*. c #FF5F5F",
"=. c #FF1313",
"-. c #FFBDBD",
";. c #FFA3A3",
":. c #FF2323",
">. c #FFF5F5",
",. c #FFB7B7",
"<. c #FF9F9F",
"1. c #FF8787",
"2. c #FF6F6F",
"3. c #FF3F3F",
"4. c #FF5353",
"5. c #FF0D0D",
"6. c #FF0C0C",
"7. c #FFFBFB",
"8. c #FF4A4A",
"9. c #FFB5B5",
"0. c #FF6262",
"q. c #FFACAC",
"w. c #FF3C3C",
"e. c #FFD6D6",
"r. c #FF4747",
"t. c #FF1818",
"y. c #FFDBDB",
"u. c #FFF4F4",
"i. c #FF3535",
"p. c #FFA5A5",
"a. c #FF1A1A",
"s. c #FFB9B9",
"d. c #FFDDDD",
"f. c #FF3838",
"g. c #FF2121",
"h. c #FFE2E2",
"j. c #FF0909",
"k. c #FFF6F6",
"l. c #FFB3B3",
"z. c #FF0B0B",
"x. c #FF0E0E",
"c. c #FF8F8F",
"v. c #FF5252",
"b. c snow",
"n. c #FF3A3A",
"m. c #FFDEDE",
"M. c #FF4545",
"N. c #FFE4E4",
"B. c #FFCACA",
"V. c #FF5050",
"C. c #FF0404",
"Z. c #FFABAB",
"A. c #FF8484",
"S. c #FF4242",
"D. c #FF0F0F",
"F. c #FF3434",
"G. c #FF7575",
"H. c #FFA4A4",
"J. c #FF8585",
"K. c #FF9999",
"L. c #FFD2D2",
"P. c #FFF7F7",
"I. c black",
/* pixels */
"                                                                                                                                ",
"                                                                                                                                ",
"                                                                                                                                ",
"                                                                                                                                ",
"                                                                                                                                ",
"                                                                                                                                ",
"                                                                                                                                ",
"                                                                                                                                ",
"                                                                                                                                ",
"                                                    . X o O + @ # $ % & *                                                       ",
"                                              = - ; : > > > > > > > > > , < 1 2                                                 ",
"                                          3 4 > > > > > > > > > > > > > > > > > 5 3                                             ",
"                                      . 6 > > > > > > > > > > > > > > > > > > > > > 7 8                                         ",
"                                    9 0 > > > > > > > > > > > > > > > > > > > > > > > q w                                       ",
"                                  * e > > > > > > > > > > > > > > > > > > > > > > > > > r t                                     ",
"                                  y > > > > > > > > > > > > > > > > > > > > > > > > > > > u                                     ",
"                                i , > > > > > > > > > > , p a s d f > > > > > > > > > > > : g                                   ",
"                                h > > > > > > > > j k l z           w x f > > > > > > > > > c                                   ",
"                                v > > > > > > > b X                     n m > > > > > > > > j M                                 ",
"                              N > > > > > > > > B                         V C > > > > > > > > Z                                 ",
"                              g > > > > > > > > 8                           A > > > > > > > > S                                 ",
"                              l > > > > > > > > D                           F > > > > > > > > G                                 ",
"                              H > > > > > > > > J                             K L L L L L L L P                                 ",
"                              t : > > > > > > > I U Y                                                                           ",
"                                d > > > > > > > > > T R t                                                                       ",
"                                E > > > > > > > > > > > W Q x !                                                                 ",
"                                8 C > > > > > > > > > > > > > > ~ L ^ /                                                         ",
"                                  ( > > > > > > > > > > > > > > > > > > ) S _ z                                                 ",
"                                    ` > > > > > > > > > > > > > > > > > > > > ' K ]                                             ",
"                                    [ { > > > > > > > > > > > > > > > > > > > > > > } |                                         ",
"                                      [  ., > > > > > > > > > > > > > > > > > > > > > ..X.                                      ",
"                                          / 6 j > > > > > > > > > > > > > > > > > > > > > o.                                    ",
"                                              i P ) > > > > > > > > > > > > > > > > > > > > O.                                  ",
"                                                  Y g +.< j > > > > > > > > > > > > > > > > : l                                 ",
"                                                          @.#.$.%.: > > > > > > > > > > > > > r Y                               ",
"                                                                  V &.*.=.> > > > > > > > > > > -.                              ",
"                                                                        z ;.:.> > > > > > > > > K                               ",
"                                                                            >.G > > > > > > > > r                               ",
"                            / ,.<.1.2.L 3.q 4.                                9 5.> > > > > > > W                               ",
"                            Q > > > > > > > 6.7.                                8.> > > > > > > > >.                            ",
"                            O.> > > > > > > > 9.                                0.> > > > > > > > V                             ",
"                            q.> > > > > > > > 8.                                w.> > > > > > > > 7.                            ",
"                            M I > > > > > > > > ,.                            e.: > > > > > > > f                               ",
"                              r.> > > > > > > > t.y.                        u.i.> > > > > > > > 4.                              ",
"                              p.> > > > > > > > > a.s.                    d.f.> > > > > > > > > ;.                              ",
"                              * g.> > > > > > > > > > s p.h.        V s.0.j.> > > > > > > > > ' k.                              ",
"                                l.> > > > > > > > > > > > > z.) ) x.> > > > > > > > > > > > > c.                                ",
"                                  v.> > > > > > > > > > > > > > > > > > > > > > > > > > > > e b.                                ",
"                                  u.n.> > > > > > > > > > > > > > > > > > > > > > > > > > =.m.                                  ",
"                                    @.e > > > > > > > > > > > > > > > > > > > > > > > > C ]                                     ",
"                                      z +.I > > > > > > > > > > > > > > > > > > > > > M.N.                                      ",
"                                          B.V.C.> > > > > > > > > > > > > > > > > %.Z.Y                                         ",
"                                              F A.S.D.> > > > > > > > > > , F.G.&                                               ",
"                                                    Y / l.H.x J.A.E K.l.L.P.                                                    ",
"                                                                                                                                ",
"                                                                                                                                ",
"                                                                                                                                ",
"                                                                                                                                ",
"                                                                                                                                ",
"                                                                                                                                ",
"                                                                                                                                ",
"                                                                                                                                ",
"                                                                                                                                ",
"                                                                                                                                "
};
