/* XPM */
static char *_d85b832d84545cdfbbd6ad4697f3f6aeh8Eiac7OYovAIa3[] = {
/* columns rows colors chars-per-pixel */
"64 64 82 1 ",
"  c white",
". c #7383FF",
"X c #001DFF",
"o c #021FFF",
"O c #CBD1FF",
"+ c #7786FF",
"@ c #334AFF",
"# c #FDFDFF",
"$ c #94A0FF",
"% c #0F2AFF",
"& c #E8EBFF",
"* c #5B6EFF",
"= c #BDC5FF",
"- c #2840FF",
"; c #F9FAFF",
": c #8593FF",
"> c #0925FF",
", c #DEE2FF",
"< c #4B5FFF",
"1 c #AFB8FF",
"2 c #1D37FF",
"3 c #F4F5FF",
"4 c #7585FF",
"5 c #0421FF",
"6 c #D4D9FF",
"7 c #3D53FF",
"8 c #FEFEFF",
"9 c #5064FF",
"0 c #0521FF",
"q c #9FAAFF",
"w c #7B8AFF",
"e c #1530FF",
"r c #EDEFFF",
"t c #F5F6FF",
"y c #2039FF",
"u c #6677FF",
"i c #B4BDFF",
"p c #011EFF",
"a c #C7CDFF",
"s c #5165FF",
"d c #3048FF",
"f c #FCFCFF",
"g c #E3E6FF",
"h c #0C28FF",
"j c #909DFF",
"k c #8D9AFF",
"l c #0D29FF",
"z c #E5E8FF",
"x c #5669FF",
"c c #C8CEFF",
"v c #BAC2FF",
"b c #6778FF",
"n c #253EFF",
"m c #F8F9FF",
"M c #EFF1FF",
"N c #1630FF",
"B c #808EFF",
"V c #A3ADFF",
"C c #0824FF",
"Z c #DBDFFF",
"A c #4257FF",
"S c #475CFF",
"D c #D9DDFF",
"F c #0723FF",
"G c #7D8CFF",
"H c #F7F8FF",
"J c #243DFF",
"K c #B9C1FF",
"L c #576AFF",
"P c #E7EAFF",
"I c #939FFF",
"U c #344BFF",
"Y c #CDD3FF",
"T c #0320FF",
"R c #6D7EFF",
"E c #F1F3FF",
"W c #1A34FF",
"Q c #A9B3FF",
"! c #485DFF",
"~ c #DDE1FF",
"^ c #8492FF",
"/ c black",
/* pixels */
"                                                                ",
"                                                                ",
"                                                                ",
"                                                                ",
"                                                                ",
"                                                                ",
"                                                                ",
"                                                                ",
"                                                                ",
"                                                                ",
"               .XXXXXXXoO                +XXXXXXX+              ",
"               .XXXXXXXX@#               +XXXXXXX+              ",
"               .XXXXXXXXX$               +XXXXXXX+              ",
"               .XXXXXXXXX%&              +XXXXXXX+              ",
"               .XXXXXXXXXX*              +XXXXXXX+              ",
"               .XXXXXXXXXXX=             +XXXXXXX+              ",
"               .XXXXXXXXXXX-;            +XXXXXXX+              ",
"               .XXXXXXXXXXXX:            +XXXXXXX+              ",
"               .XXXXXXXXXXXX>,           +XXXXXXX+              ",
"               .XXXXXXXXXXXXX<           +XXXXXXX+              ",
"               .XXXXXXXXXXXXXX1          +XXXXXXX+              ",
"               .XXXXXXXXXXXXXX23         +XXXXXXX+              ",
"               .XXXXXXXXXXXXXXX4         +XXXXXXX+              ",
"               .XXXXXXXXXXXXXXX56        +XXXXXXX+              ",
"               .XXXXXXXXXXXXXXXX78       +XXXXXXX+              ",
"               .XXXXXXX90XXXXXXXXq       +XXXXXXX+              ",
"               .XXXXXXXw+XXXXXXXXer      +XXXXXXX+              ",
"               .XXXXXXXwtyXXXXXXXXu      +XXXXXXX+              ",
"               .XXXXXXXw iXXXXXXXXpa     +XXXXXXX+              ",
"               .XXXXXXXw  sXXXXXXXXdf    +XXXXXXX+              ",
"               .XXXXXXXw  ghXXXXXXXXj    +XXXXXXX+              ",
"               .XXXXXXXw   kXXXXXXXXlz   +XXXXXXX+              ",
"               .XXXXXXXw   fdXXXXXXXXx   +XXXXXXX+              ",
"               .XXXXXXXw    coXXXXXXXXv  +XXXXXXX+              ",
"               .XXXXXXXw     bXXXXXXXXnm +XXXXXXX+              ",
"               .XXXXXXXw     MNXXXXXXXXB +XXXXXXX+              ",
"               .XXXXXXXw      VXXXXXXXXCZ+XXXXXXX+              ",
"               .XXXXXXXw       AXXXXXXXXS+XXXXXXX+              ",
"               .XXXXXXXw       DFXXXXXXXX-XXXXXXX+              ",
"               .XXXXXXXw        GXXXXXXXXXXXXXXXX+              ",
"               .XXXXXXXw        HJXXXXXXXXXXXXXXX+              ",
"               .XXXXXXXw         KXXXXXXXXXXXXXXX+              ",
"               .XXXXXXXw          LXXXXXXXXXXXXXX+              ",
"               .XXXXXXXw          P%XXXXXXXXXXXXX+              ",
"               .XXXXXXXw           IXXXXXXXXXXXXX+              ",
"               .XXXXXXXw           #UXXXXXXXXXXXX+              ",
"               .XXXXXXXw            YTXXXXXXXXXXX+              ",
"               .XXXXXXXw             RXXXXXXXXXXX+              ",
"               .XXXXXXXw             EWXXXXXXXXXX+              ",
"               .XXXXXXXw              QXXXXXXXXXX+              ",
"               .XXXXXXXw               !XXXXXXXXX+              ",
"               .XXXXXXXw               ~>XXXXXXXX+              ",
"               .XXXXXXXw                ^XXXXXXXX+              ",
"                                                                ",
"                                                                ",
"                                                                ",
"                                                                ",
"                                                                ",
"                                                                ",
"                                                                ",
"                                                                ",
"                                                                ",
"                                                                ",
"                                                                "
};
