/* XPM */
static char *_069af4876d94b809452c80f35e6267eAshbxWGkSebrO9qV[] = {
/* columns rows colors chars-per-pixel */
"64 64 186 2 ",
"   c white",
".  c #FFC251",
"X  c orange",
"o  c #FFEED0",
"O  c #FFBD45",
"+  c #FFB328",
"@  c #FFE7BA",
"#  c #FFD68B",
"$  c #FFD78F",
"%  c #FFDA97",
"&  c #FFFDF8",
"*  c #FFA809",
"=  c #FFF7E7",
"-  c #FFD382",
";  c #FFECC9",
":  c #FFEDCC",
">  c #FFC75F",
",  c #FFE8BD",
"<  c #FFE0A7",
"1  c #FFBF4A",
"2  c #FFA90C",
"3  c #FFFEFB",
"4  c #FFFEFC",
"5  c #FFAA0D",
"6  c #FFB327",
"7  c #FFD079",
"8  c #FFC967",
"9  c #FFAC13",
"0  c #FFBE46",
"q  c #FFA501",
"w  c #FFF9ED",
"e  c #FFB835",
"r  c #FFF2DA",
"t  c #FFD383",
"y  c #FFE5B6",
"u  c #FFF9EF",
"i  c #FFA602",
"p  c #FFF6E6",
"a  c #FFDEA1",
"s  c #FFE9C1",
"d  c #FFE9C0",
"f  c #FFD17E",
"g  c #FFE2AD",
"h  c #FFE0A6",
"j  c #FFCA69",
"k  c #FFA707",
"l  c #FFFCF7",
"z  c #FFA706",
"x  c #FFC966",
"c  c #FFB631",
"v  c #FFBB3E",
"b  c #FFB93A",
"n  c #FFAB10",
"m  c #FFFFFE",
"M  c #FFB225",
"N  c #FFB226",
"B  c #FFFBF5",
"V  c #FFA604",
"C  c #FFD17C",
"Z  c #FFCF77",
"A  c #FFF1D6",
"S  c #FFF4E1",
"D  c #FFE5B4",
"F  c #FFDC9D",
"G  c #FFD588",
"H  c #FFFBF4",
"J  c #FFC965",
"K  c #FFC459",
"L  c #FFC356",
"P  c #FFC150",
"I  c #FFB836",
"U  c #FFB52E",
"Y  c #FFB52D",
"T  c #FFAD17",
"R  c #FFAA0F",
"E  c #FFEECF",
"W  c #FFAE19",
"Q  c #FFCE74",
"!  c #FFCB6B",
"~  c #FFFAF2",
"^  c #FFEFD1",
"/  c #FFC14F",
"(  c #FFAD18",
")  c #FFF6E5",
"_  c #FFF4E0",
"`  c #FFE4B2",
"'  c #FFE0A8",
"]  c #FFD78D",
"[  c #FFD993",
"{  c #FFC55A",
"}  c #FFDFA5",
"|  c #FFF9EE",
" . c #FFD484",
".. c #FFBF49",
"X. c #FFF1D7",
"o. c #FFDD9E",
"O. c #FFCC6F",
"+. c #FFB62F",
"@. c #FFB122",
"#. c #FFC04C",
"$. c #FFFDFA",
"%. c #FFA90B",
"&. c #FFAF1B",
"*. c #FFF5E3",
"=. c #FFB224",
"-. c #FFB837",
";. c #FFCB6D",
":. c #FFAC15",
">. c #FFF5E4",
",. c #FFFDF9",
"<. c #FFE1AB",
"1. c #FFDC9C",
"2. c #FFF3DC",
"3. c #FFD17D",
"4. c #FFDFA3",
"5. c #FFDFA4",
"6. c #FFEBC7",
"7. c #FFF7E9",
"8. c #FFF2D9",
"9. c #FFB939",
"0. c #FFE3AF",
"q. c #FFC864",
"w. c #FFFAF1",
"e. c #FFB42B",
"r. c FloralWhite",
"t. c #FFA603",
"y. c #FFC253",
"u. c #FFB733",
"i. c #FFE3B1",
"p. c #FFB01E",
"a. c #FFD890",
"s. c #FFA705",
"d. c #FFFCF6",
"f. c #FFE4B3",
"g. c #FFD07B",
"h. c #FFF5E2",
"j. c #FFEDCD",
"k. c #FFEAC3",
"l. c #FFB329",
"z. c #FFE8BF",
"x. c #FFC863",
"c. c #FFE2AE",
"v. c #FFB020",
"b. c #FFD68A",
"n. c #FFA90A",
"m. c #FFB123",
"M. c #FFCF76",
"N. c #FFC65E",
"B. c #FFBE47",
"V. c #FFC252",
"C. c #FFBB3D",
"Z. c #FFAE1A",
"A. c #FFC65D",
"S. c #FFE9C2",
"D. c #FFDEA2",
"F. c #FFC862",
"G. c #FFD280",
"H. c #FFDA95",
"J. c #FFC457",
"K. c #FFBA3B",
"L. c #FFAB11",
"P. c #FFD78E",
"I. c #FFC458",
"U. c #FFBB3F",
"Y. c #FFCF78",
"T. c #FFEFD2",
"R. c #FFEFD3",
"E. c #FFE5B5",
"W. c #FFCA68",
"Q. c #FFCB6C",
"!. c #FFE2AC",
"~. c #FFEDCB",
"^. c #FFE1A9",
"/. c #FFCA6A",
"(. c #FFB734",
"). c #FFBE48",
"_. c #FFD486",
"`. c #FFC760",
"'. c #FFE7BC",
"]. c #FFEAC4",
"[. c #FFD07A",
"{. c #FFBD44",
"}. c #FFBC40",
"|. c #FFE8BE",
" X c #FFC354",
".X c black",
/* pixels */
"                                                                                                                                ",
"                                                                                                                                ",
"                                                                                                                                ",
"                                                                                                                                ",
"                                                                                                                                ",
"                                                                                                                                ",
"                                                                                                                                ",
"                                                                                                                                ",
"                                                                                                                                ",
"                                                                                                                                ",
"        . X X X X X X X X o                           O X X X X X X X X X +                           @ X X X X X X X X #       ",
"        $ X X X X X X X X %                         & * X X X X X X X X X X =                         - X X X X X X X X ;       ",
"        : X X X X X X X X >                         , X X X X X X X X X X X <                         1 X X X X X X X 2 3       ",
"        4 5 X X X X X X X 6                         7 X X X X X X X X X X X 8                         9 X X X X X X X O         ",
"          0 X X X X X X X q w                       e X X X X X X X X X X X 6                       r X X X X X X X X t         ",
"          t X X X X X X X X y                     u i X X X X X X X X X X X X p                     a X X X X X X X X s         ",
"          d X X X X X X X X f                     g X X X X X X X X X X X X X h                     j X X X X X X X k &         ",
"          l z X X X X X X X 0                     j X X X X X X X X X X X X X x                     c X X X X X X X v           ",
"            b X X X X X X X n m                   M X X X X X X X X X X X X X N                   B V X X X X X X X C           ",
"            Z X X X X X X X X A                 S X X X X X X X X X X X X X X X p                 s X X X X X X X X @           ",
"            D X X X X X X X X F                 F X X X X X X X q X X X X X X X h                 G X X X X X X X V H           ",
"            u i X X X X X X X J                 K X X X X X X X L X X X X X X X J                 P X X X X X X X I             ",
"              U X X X X X X X Y               m T X X X X X X R E X X X X X X X M                 W X X X X X X X Q             ",
"              ! X X X X X X X i ~             ^ X X X X X X X /   ( X X X X X X X )             _ X X X X X X X X `             ",
"              ' X X X X X X X X ,             ] X X X X X X X [   { X X X X X X X }             ' X X X X X X X i |             ",
"              ) X X X X X X X X  .            ..X X X X X X X X.  o.X X X X X X X J             O.X X X X X X X +.              ",
"                @.X X X X X X X #.          $.%.X X X X X X &.    *.X X X X X X X =.            -.X X X X X X X ;.              ",
"                > X X X X X X X :.          s X X X X X X X >       6 X X X X X X X >.        ,.k X X X X X X X <.              ",
"                1.X X X X X X X X 2.        3.X X X X X X X 4.      ! X X X X X X X 5.        6.X X X X X X X X 7.              ",
"                8.X X X X X X X X 4.        9.X X X X X X X p       0.X X X X X X X q.        $ X X X X X X X 6                 ",
"                  T X X X X X X X !       w.V X X X X X X e.        r.t.X X X X X X =.        L X X X X X X X J                 ",
"                  y.X X X X X X X u.      i.X X X X X X X O.          -.X X X X X X X *.      p.X X X X X X X 5.                ",
"                  a.X X X X X X X s.d.    ;.X X X X X X X f.          g.X X X X X X X 4.    = X X X X X X X X h.                ",
"                  j.X X X X X X X X k.    l.X X X X X X V ~           z.X X X X X X X x.    c.X X X X X X X v.                  ",
"                  4 5 X X X X X X X b.  ) X X X X X X X b             ,.n.X X X X X X m.    M.X X X X X X X N.                  ",
"                    B.X X X X X X X V.  a X X X X X X X f               B.X X X X X X X h.  C.X X X X X X X 1.                  ",
"                     .X X X X X X X Z.  A.X X X X X X X S.              # X X X X X X X D.3 n.X X X X X X X r                   ",
"                    s X X X X X X X X h.Z.X X X X X X 2 $.              E X X X X X X X F.j.X X X X X X X W                     ",
"                    l k X X X X X X X G.X X X X X X X 1                 m :.X X X X X X @.H.X X X X X X X J.                    ",
"                      K.X X X X X X X L.X X X X X X X P.                  I.X X X X X X X U.X X X X X X X H.                    ",
"                      Y.X X X X X X X X X X X X X X X T.                  1.X X X X X X X X X X X X X X X R.                    ",
"                      E.X X X X X X X X X X X X X X T                     _ X X X X X X X X X X X X X X 9 m                     ",
"                      r.i X X X X X X X X X X X X X {                       =.X X X X X X X X X X X X X /                       ",
"                        +.X X X X X X X X X X X X X o.                      W.X X X X X X X X X X X X X ]                       ",
"                        Q.X X X X X X X X X X X X X h.                      !.X X X X X X X X X X X X X ~.                      ",
"                        ^.X X X X X X X X X X X X N                         | i X X X X X X X X X X X 5 4                       ",
"                        p X X X X X X X X X X X X /.                          (.X X X X X X X X X X X ).                        ",
"                          m.X X X X X X X X X X X c.                          Y.X X X X X X X X X X X _.                        ",
"                          `.X X X X X X X X X X t.u                           '.X X X X X X X X X X X ].                        ",
"                          F X X X X X X X X X X I                             & * X X X X X X X X X * ,.                        ",
"                          r X X X X X X X X X X [.                              {.X X X X X X X X X }.                          ",
"                            ( X X X X X X X X X |.                              G X X X X X X X X X f                           ",
"                             XX X X X X X X X * &                               j.X X X X X X X X X '.                          ",
"                                                                                                                                ",
"                                                                                                                                ",
"                                                                                                                                ",
"                                                                                                                                ",
"                                                                                                                                ",
"                                                                                                                                ",
"                                                                                                                                ",
"                                                                                                                                ",
"                                                                                                                                ",
"                                                                                                                                ",
"                                                                                                                                "
};
